<svg width="78" height="14" viewBox="0 0 78 14" fill="none" xmlns="http://www.w3.org/2000/svg">
<path fill-rule="evenodd" clip-rule="evenodd" d="M3.78689 7.77668C2.69793 7.35145 1.75749 6.9843 1.75749 6.13694C1.75749 5.1584 2.64857 4.80897 3.48294 4.80897C4.92564 4.80897 5.69203 5.60652 5.69983 5.61434L5.77343 5.69315L6.41901 4.60935L6.37961 4.5648C6.34237 4.52319 5.44783 3.5438 3.51931 3.5438C1.98351 3.5438 0.330801 4.3552 0.330801 6.1374C0.330801 7.82216 1.85231 8.42481 3.19371 8.95654C4.2844 9.38865 5.2257 9.76191 5.2257 10.6015C5.2257 11.5441 4.35064 11.9658 3.48294 11.9658C1.84279 11.9658 0.843026 10.9007 0.833064 10.8899L0.766818 10.8184L0 11.8346L0.0432986 11.8844C0.0562882 11.8978 0.347688 12.2277 0.917932 12.5603C1.44098 12.8664 2.30782 13.2314 3.46475 13.2314C5.3123 13.2314 6.65326 12.1251 6.65326 10.6015C6.65326 8.89552 5.13001 8.3006 3.78689 7.77668ZM16.4708 8.34259C16.4708 10.3746 14.951 11.9658 13.0113 11.9658C11.0723 11.9658 9.5525 10.3746 9.5525 8.34298C9.5525 6.37075 11.0723 4.82714 13.0116 4.82714C14.9515 4.82714 16.4713 6.37075 16.4713 8.34298L16.4708 8.34259ZM13.0113 3.54426C10.2722 3.54426 8.12584 5.652 8.12584 8.34344C8.12584 11.0842 10.2722 13.2319 13.0116 13.2319C15.7516 13.2319 17.8979 11.0842 17.8979 8.34344C17.8979 5.652 15.7516 3.54426 13.0116 3.54426H13.0113ZM23.9415 0.116282C23.7518 0.0895451 23.5603 0.0772401 23.3687 0.079483C22.4005 0.079483 20.1486 0.415907 20.1486 3.5356V3.88759H18.9115V5.0792H20.1486V13.0214H21.5376V5.0792H23.8649V3.88712H21.5376V3.53514C21.5376 2.71639 21.7926 1.34207 23.4946 1.34207C23.7354 1.34207 23.9108 1.3767 23.9125 1.3767L24.0091 1.39619V0.127977L23.9415 0.115849V0.116282ZM30.4995 11.8939L30.3991 11.9156C30.2654 11.9406 30.1297 11.9524 29.9938 11.9506C29.2482 11.9506 27.9973 11.6433 27.9973 9.58526V5.10473H30.316V3.89022H27.9968V1.21997H26.5983V3.88975H25.3656V5.10426H26.5797V9.71341C26.5797 12.7811 28.6494 13.2392 29.8834 13.2392C30.2181 13.2392 30.4229 13.2029 30.4311 13.2011L30.4995 13.189V11.8935V11.8939ZM33.3257 10.2637C33.3257 10.2637 34.3409 11.28 35.8456 11.28C36.4989 11.28 37.0601 10.9899 37.0601 10.4456C37.0601 9.06652 32.564 9.24796 32.564 6.27291C32.564 4.54964 34.1054 3.55115 36.0993 3.55115C38.1845 3.55115 39.1995 4.60331 39.1995 4.60331L38.3478 6.30926C38.3478 6.30926 37.4957 5.51085 36.0816 5.51085C35.4832 5.51085 34.903 5.76461 34.903 6.34522C34.903 7.65154 39.3995 7.48827 39.3995 10.4629C39.3995 12.0052 38.0577 13.2384 35.8642 13.2384C33.5612 13.2384 32.2735 11.8779 32.2735 11.8779L33.3257 10.2637ZM47.3817 7.25276C47.3452 6.00059 46.5655 5.32902 45.5501 5.32902C44.3724 5.32902 43.5558 6.05511 43.338 7.25276H47.3817ZM45.6046 3.55115C48.2701 3.55115 49.7025 5.49221 49.7025 7.94165C49.7025 8.21358 49.6483 8.83101 49.6483 8.83101H43.2661C43.4107 10.446 44.6624 11.28 46.0398 11.28C47.5267 11.28 48.7048 10.2637 48.7048 10.2637L49.5937 11.9151C49.5937 11.9151 48.1792 13.2388 45.8766 13.2388C42.8123 13.2388 40.9085 11.0262 40.9085 8.39542C40.9085 5.5472 42.8492 3.55115 45.6046 3.55115ZM52.0198 3.76941H54.2323V5.36583C54.2323 5.71001 54.196 6.01876 54.196 6.01876H54.2319C54.6493 4.69466 55.7551 3.6421 57.1693 3.6421C57.3871 3.6421 57.5862 3.67845 57.5862 3.67845V5.94644C57.5862 5.94644 57.3507 5.91009 57.0424 5.91009C56.063 5.91009 54.9571 6.47207 54.5225 7.85116C54.3774 8.30446 54.3232 8.81237 54.3232 9.35663V13.0214H52.0198V3.76941ZM58.5891 3.76941H61.0185L62.9406 9.50165C63.1224 10.0464 63.2493 10.6612 63.2662 10.6612H63.3034C63.3212 10.6612 63.448 10.0464 63.6295 9.50165L65.5519 3.76894H67.9809L64.663 13.0214H61.9434L58.5891 3.76941ZM75.0213 7.25276C74.9854 6.00059 74.2055 5.32902 73.1902 5.32902C72.0116 5.32902 71.1954 6.05511 70.9781 7.25276H75.0213ZM73.2448 3.55115C75.9102 3.55115 77.3425 5.49221 77.3425 7.94165C77.3425 8.21358 77.288 8.83101 77.288 8.83101H70.9058C71.0508 10.446 72.3017 11.28 73.6799 11.28C75.1663 11.28 76.345 10.2637 76.345 10.2637L77.2339 11.9151C77.2339 11.9151 75.8193 13.2388 73.5166 13.2388C70.4529 13.2388 68.5486 11.0262 68.5486 8.39542C68.5486 5.5472 70.4888 3.55115 73.2448 3.55115Z" fill="white"/>
</svg>
